<svg width="275" height="64" viewBox="0 0 275 64" fill="none" xmlns="http://www.w3.org/2000/svg">
<path d="M56.9382 6.41214C57.2795 7.43614 57.3649 8.58814 57.1942 9.86814C57.0235 11.1481 56.7248 12.4708 56.2982 13.8361C55.8715 15.1161 55.3595 16.3961 54.7622 17.6761C54.2502 18.8708 53.7808 19.9374 53.3542 20.8761C51.1355 25.3988 49.0449 29.8361 47.0822 34.1881C45.1195 38.5401 42.8155 43.2761 40.1702 48.3961C39.6582 49.4201 39.0608 50.6574 38.3782 52.1081C37.7808 53.4734 37.0982 54.8388 36.3302 56.2041C35.5622 57.4841 34.7089 58.6788 33.7702 59.7881C32.9168 60.8974 31.9782 61.7081 30.9542 62.2201C30.1008 62.7321 29.2475 62.9454 28.3942 62.8601C27.7115 63.0308 26.9435 62.8174 26.0902 62.2201C25.0662 61.7081 24.0848 60.8974 23.1462 59.7881C22.2928 58.6788 21.4822 57.4841 20.7142 56.2041C19.9462 54.8388 19.2208 53.4734 18.5382 52.1081C17.9408 50.6574 17.3862 49.4201 16.8742 48.3961C15.8502 46.4334 14.8688 44.5988 13.9302 42.8921C13.0768 41.1854 12.1382 39.3508 11.1142 37.3881C10.1755 35.3401 9.10889 33.0361 7.91422 30.4761C6.71956 27.8308 5.31156 24.6308 3.69022 20.8761C3.26356 19.8521 2.79422 18.7854 2.28222 17.6761C1.77022 16.5668 1.30089 15.3721 0.874219 14.0921C0.532885 12.8121 0.276885 11.5321 0.106218 10.2521C0.0208856 8.8868 0.106219 7.52147 0.362218 6.15614C0.618219 4.87614 1.25822 3.85214 2.28222 3.08414C3.30622 2.31614 4.45822 1.80414 5.73822 1.54814C7.01822 1.29214 8.29822 1.3348 9.57822 1.67614C10.8582 1.93214 11.8822 2.4868 12.6502 3.34014C13.4182 4.10814 14.1435 5.13214 14.8262 6.41214C15.5088 7.69214 16.1488 9.05747 16.7462 10.5081C17.4288 11.8734 18.0262 13.2814 18.5382 14.7321C19.1355 16.0974 19.6902 17.2921 20.2022 18.3161C21.3968 20.7908 22.7195 23.4788 24.1702 26.3801C25.7062 29.2814 27.0715 31.9694 28.2662 34.4441C29.1195 32.4814 29.8875 30.8601 30.5702 29.5801C31.2528 28.2148 31.8928 26.8921 32.4902 25.6121C33.1728 24.3321 33.8555 22.9241 34.5382 21.3881C35.3062 19.8521 36.2448 17.8894 37.3542 15.5001C38.3782 13.2814 39.4022 11.1054 40.4262 8.97214C41.5355 6.8388 42.8582 4.96147 44.3942 3.34014C45.1622 2.4868 46.1435 1.93214 47.3382 1.67614C48.5329 1.3348 49.7702 1.29214 51.0502 1.54814C52.3302 1.80414 53.4822 2.3588 54.5062 3.21214C55.6155 3.98014 56.4262 5.0468 56.9382 6.41214ZM100.336 44.9401C101.36 44.6841 102.384 44.5134 103.408 44.4281C104.517 44.3428 105.498 44.4708 106.352 44.8121C107.29 45.1534 108.058 45.7508 108.656 46.6041C109.253 47.3721 109.552 48.4814 109.552 49.9321C109.552 50.9561 109.296 51.9374 108.784 52.8761C108.272 53.8148 107.632 54.6681 106.864 55.4361C106.096 56.2041 105.242 56.8868 104.304 57.4841C103.365 57.9961 102.469 58.4228 101.616 58.7641C99.1415 59.8734 96.2828 60.7268 93.0402 61.3241C89.8829 61.9214 86.5975 62.1348 83.1842 61.9641C78.5762 61.7934 74.1388 60.8974 69.8722 59.2761C65.6908 57.5694 62.4055 54.7961 60.0162 50.9561C57.7975 47.2014 56.4748 43.0201 56.0482 38.4121C55.6215 33.8041 55.8348 29.4521 56.6882 25.3561C57.6268 20.4068 59.2055 16.3961 61.4242 13.3241C63.7282 10.1668 66.4588 7.64947 69.6162 5.77214C73.4562 3.55347 77.7655 2.40147 82.5442 2.31614C87.3228 2.2308 91.8882 3.16947 96.2402 5.13214C99.1415 6.41214 101.744 8.16147 104.048 10.3801C106.352 12.5134 108.101 15.1161 109.296 18.1881C109.637 18.9561 109.893 19.8948 110.064 21.0041C110.32 22.1134 110.49 23.3081 110.576 24.5881C110.661 25.7828 110.661 26.9774 110.576 28.1721C110.49 29.3668 110.277 30.4334 109.936 31.3721C109.424 32.9081 108.784 34.1028 108.016 34.9561C107.248 35.8094 106.266 36.4494 105.072 36.8761C103.877 37.3028 102.426 37.6014 100.72 37.7721C99.0988 37.8574 97.1362 37.9428 94.8322 38.0281C92.7842 38.1134 90.8642 38.1561 89.0722 38.1561C87.2802 38.1561 85.4455 38.1561 83.5682 38.1561C81.6908 38.0708 79.7282 38.0281 77.6802 38.0281C75.7175 37.9428 73.4988 37.8574 71.0242 37.7721C70.7682 39.4788 70.9815 40.9721 71.6642 42.2521C72.4322 43.4468 73.4562 44.4708 74.7362 45.3241C76.0162 46.0921 77.4668 46.6894 79.0882 47.1161C80.7095 47.5428 82.2882 47.7988 83.8242 47.8841C86.7255 48.0548 89.4988 47.8414 92.1442 47.2441C94.7895 46.5614 97.5202 45.7934 100.336 44.9401ZM94.8322 20.1081C93.2108 18.2308 91.5042 16.8654 89.7122 16.0121C88.3468 15.4148 86.8962 15.1588 85.3602 15.2441C83.9095 15.2441 82.5015 15.4574 81.1362 15.8841C78.6615 16.4814 76.5708 17.7614 74.8642 19.7241C74.6935 19.8948 74.3948 20.3214 73.9682 21.0041C73.5415 21.6014 73.1148 22.2414 72.6882 22.9241C72.3468 23.6068 72.0908 24.2468 71.9202 24.8441C71.7495 25.4414 71.8348 25.7401 72.1762 25.7401H97.2642C97.1789 24.5454 96.9655 23.5641 96.6242 22.7961C96.2828 21.9428 95.6855 21.0468 94.8322 20.1081ZM143.835 39.9481C142.213 38.9241 140.379 38.1134 138.331 37.5161C136.368 36.9188 134.32 36.3641 132.187 35.8521C130.139 35.3401 128.133 34.7854 126.171 34.1881C124.208 33.5054 122.416 32.5668 120.795 31.3721C117.296 28.7268 115.248 25.4841 114.651 21.6441C114.139 17.7188 114.992 13.7934 117.211 9.86814C118.405 7.82014 119.984 6.15614 121.947 4.87614C123.909 3.5108 126.043 2.4868 128.347 1.80414C130.736 1.03614 133.168 0.609469 135.643 0.524135C138.117 0.438802 140.464 0.566802 142.683 0.908133C144.133 1.16414 145.669 1.54814 147.291 2.06014C148.912 2.4868 150.405 3.08414 151.771 3.85214C153.221 4.62014 154.501 5.60147 155.611 6.79614C156.805 7.90547 157.659 9.31347 158.171 11.0201C158.512 12.1294 158.555 13.1961 158.299 14.2201C158.128 15.2441 157.701 16.0974 157.019 16.7801C156.421 17.4628 155.611 17.9748 154.587 18.3161C153.648 18.6574 152.624 18.7428 151.515 18.5721C150.235 18.3161 149.04 17.9321 147.931 17.4201C146.821 16.9081 145.712 16.3534 144.603 15.7561C143.493 15.1588 142.341 14.6468 141.147 14.2201C140.037 13.7934 138.843 13.5801 137.563 13.5801C135.6 13.4948 133.979 13.8361 132.699 14.6041C131.419 15.3721 130.523 16.3108 130.011 17.4201C129.584 18.5294 129.627 19.7241 130.139 21.0041C130.736 22.2841 131.931 23.3934 133.723 24.3321C135.344 25.1854 137.136 25.8681 139.099 26.3801C141.061 26.8921 142.981 27.4041 144.859 27.9161C146.821 28.4281 148.699 29.0254 150.491 29.7081C152.368 30.3908 154.032 31.3294 155.483 32.5241C158.299 34.8281 160.005 37.5161 160.603 40.5881C161.285 43.6601 161.115 46.6894 160.091 49.6761C159.067 52.6628 157.275 55.3081 154.715 57.6121C152.24 59.9161 149.296 61.4521 145.883 62.2201C143.408 62.7321 140.72 62.9881 137.819 62.9881C135.003 62.9881 132.187 62.6894 129.371 62.0921C126.64 61.4948 123.995 60.5561 121.435 59.2761C118.96 57.9961 116.869 56.3748 115.163 54.4121C113.968 53.0468 113.328 51.5108 113.243 49.8041C113.243 48.0121 113.584 46.4761 114.267 45.1961C115.035 43.8308 116.101 42.8921 117.467 42.3801C118.832 41.8681 120.368 42.1668 122.075 43.2761C123.44 44.2148 125.061 45.1534 126.939 46.0921C128.816 46.9454 130.693 47.6281 132.571 48.1401C134.448 48.6521 136.24 48.9081 137.947 48.9081C139.739 48.9081 141.275 48.5241 142.555 47.7561C144.432 46.5614 145.413 45.1961 145.499 43.6601C145.584 42.0388 145.029 40.8014 143.835 39.9481ZM194.28 39.9481C192.658 38.9241 190.824 38.1134 188.776 37.5161C186.813 36.9188 184.765 36.3641 182.632 35.8521C180.584 35.3401 178.578 34.7854 176.616 34.1881C174.653 33.5054 172.861 32.5668 171.24 31.3721C167.741 28.7268 165.693 25.4841 165.096 21.6441C164.584 17.7188 165.437 13.7934 167.656 9.86814C168.85 7.82014 170.429 6.15614 172.392 4.87614C174.354 3.5108 176.488 2.4868 178.792 1.80414C181.181 1.03614 183.613 0.609469 186.088 0.524135C188.562 0.438802 190.909 0.566802 193.128 0.908133C194.578 1.16414 196.114 1.54814 197.736 2.06014C199.357 2.4868 200.85 3.08414 202.216 3.85214C203.666 4.62014 204.946 5.60147 206.056 6.79614C207.25 7.90547 208.104 9.31347 208.616 11.0201C208.957 12.1294 209 13.1961 208.744 14.2201C208.573 15.2441 208.146 16.0974 207.464 16.7801C206.866 17.4628 206.056 17.9748 205.032 18.3161C204.093 18.6574 203.069 18.7428 201.96 18.5721C200.68 18.3161 199.485 17.9321 198.376 17.4201C197.266 16.9081 196.157 16.3534 195.048 15.7561C193.938 15.1588 192.786 14.6468 191.592 14.2201C190.482 13.7934 189.288 13.5801 188.008 13.5801C186.045 13.4948 184.424 13.8361 183.144 14.6041C181.864 15.3721 180.968 16.3108 180.456 17.4201C180.029 18.5294 180.072 19.7241 180.584 21.0041C181.181 22.2841 182.376 23.3934 184.168 24.3321C185.789 25.1854 187.581 25.8681 189.544 26.3801C191.506 26.8921 193.426 27.4041 195.304 27.9161C197.266 28.4281 199.144 29.0254 200.936 29.7081C202.813 30.3908 204.477 31.3294 205.928 32.5241C208.744 34.8281 210.45 37.5161 211.048 40.5881C211.73 43.6601 211.56 46.6894 210.536 49.6761C209.512 52.6628 207.72 55.3081 205.16 57.6121C202.685 59.9161 199.741 61.4521 196.328 62.2201C193.853 62.7321 191.165 62.9881 188.264 62.9881C185.448 62.9881 182.632 62.6894 179.816 62.0921C177.085 61.4948 174.44 60.5561 171.88 59.2761C169.405 57.9961 167.314 56.3748 165.608 54.4121C164.413 53.0468 163.773 51.5108 163.688 49.8041C163.688 48.0121 164.029 46.4761 164.712 45.1961C165.48 43.8308 166.546 42.8921 167.912 42.3801C169.277 41.8681 170.813 42.1668 172.52 43.2761C173.885 44.2148 175.506 45.1534 177.384 46.0921C179.261 46.9454 181.138 47.6281 183.016 48.1401C184.893 48.6521 186.685 48.9081 188.392 48.9081C190.184 48.9081 191.72 48.5241 193 47.7561C194.877 46.5614 195.858 45.1961 195.944 43.6601C196.029 42.0388 195.474 40.8014 194.28 39.9481ZM230.645 4.62014C233.461 3.2548 236.405 2.27347 239.477 1.67614C242.549 1.0788 245.578 0.950802 248.565 1.29214C251.637 1.63347 254.581 2.44414 257.397 3.72414C260.298 5.00414 262.943 6.79614 265.333 9.10014C267.295 11.0628 269.002 13.4521 270.453 16.2681C271.903 18.9988 272.97 21.6868 273.653 24.3321C275.103 29.0254 275.317 33.7614 274.293 38.5401C273.269 43.3188 271.519 47.7561 269.045 51.8521C267.85 53.7294 266.357 55.4361 264.565 56.9721C262.858 58.4228 261.023 59.6174 259.061 60.5561C256.501 61.7508 253.727 62.5614 250.741 62.9881C247.754 63.5001 244.853 63.6281 242.037 63.3721C236.917 63.1161 232.394 61.8361 228.469 59.5321C224.629 57.2281 221.514 54.2841 219.125 50.7001C216.821 47.1161 215.285 43.0628 214.517 38.5401C213.834 33.9321 214.133 29.2388 215.413 24.4601C216.778 19.3401 218.741 15.2014 221.301 12.0441C223.946 8.80147 227.061 6.3268 230.645 4.62014ZM234.485 21.7721C233.205 22.9668 232.223 24.4601 231.541 26.2521C230.858 28.0441 230.431 29.9214 230.261 31.8841C230.09 33.7614 230.218 35.6814 230.645 37.6441C231.157 39.5214 231.925 41.2281 232.949 42.7641C233.802 44.0441 235.338 45.1108 237.557 45.9641C239.775 46.8174 242.079 47.3294 244.469 47.5001C247.199 47.6708 249.589 46.9454 251.637 45.3241C253.685 43.6174 255.221 41.5268 256.245 39.0521C257.354 36.5774 257.866 33.8894 257.781 30.9881C257.695 28.0868 256.927 25.4414 255.477 23.0521C254.453 21.3454 253.002 20.1081 251.125 19.3401C249.333 18.4868 247.413 18.0601 245.365 18.0601C243.402 17.9748 241.439 18.2734 239.477 18.9561C237.514 19.5534 235.85 20.4921 234.485 21.7721Z" fill="#F82167"/>
</svg>
