<svg width="130" height="130" viewBox="0 0 130 130" fill="none" xmlns="http://www.w3.org/2000/svg">
<path d="M0 50C0 22.3857 22.3858 0 50 0H80C107.614 0 130 22.3858 130 50V121.583V126.124C130 128.086 128.147 129.52 126.248 129.028L109.833 124.777C101.644 122.656 93.2193 121.583 84.7605 121.583H65H50C22.3858 121.583 0 99.197 0 71.5827V50Z" fill="#F82167"/>
<path d="M101.509 57.578C93.2073 49.2761 79.8905 49.1446 71.7576 57.2775C79.8905 49.1446 79.759 35.8278 71.4571 27.5259C63.1552 19.2241 49.8384 19.0926 41.7056 27.2254C29.4481 39.4829 37.2729 55.9552 34.1926 91.8974C34.1592 92.2926 34.2125 92.6903 34.3487 93.0628C34.4849 93.4352 34.7007 93.7735 34.9812 94.0539C35.2616 94.3344 35.5999 94.5502 35.9723 94.6864C36.3448 94.8226 36.7425 94.8759 37.1377 94.8425C73.0799 91.7622 89.5522 99.587 101.81 87.3295C109.942 79.1967 109.811 65.8799 101.509 57.578Z" fill="white"/>
</svg>
