<svg width="410" height="130" viewBox="0 0 410 130" fill="none" xmlns="http://www.w3.org/2000/svg">
<g clip-path="url(#clip0_1095_1394)">
<path d="M0 50C0 22.3857 22.3858 0 50 0H80C107.614 0 130 22.3858 130 50V121.583V126.124C130 128.086 128.147 129.52 126.248 129.028L109.833 124.777C101.644 122.656 93.2193 121.583 84.7605 121.583H65H50C22.3858 121.583 0 99.197 0 71.5827V50Z" fill="#F82167"/>
<path d="M101.509 57.578C93.2073 49.2761 79.8905 49.1446 71.7576 57.2775C79.8905 49.1446 79.759 35.8278 71.4571 27.5259C63.1552 19.2241 49.8384 19.0926 41.7056 27.2254C29.4481 39.4829 37.2729 55.9552 34.1926 91.8974C34.1592 92.2926 34.2125 92.6903 34.3487 93.0628C34.4849 93.4352 34.7007 93.7735 34.9812 94.0539C35.2616 94.3344 35.5999 94.5502 35.9723 94.6864C36.3448 94.8226 36.7425 94.8759 37.1377 94.8425C73.0799 91.7622 89.5522 99.587 101.81 87.3295C109.942 79.1967 109.811 65.8799 101.509 57.578Z" fill="white"/>
<path d="M191.864 72.9121C192.205 73.9361 192.291 75.0881 192.12 76.3681C191.949 77.6481 191.651 78.9708 191.224 80.3361C190.797 81.6161 190.285 82.8961 189.688 84.1761C189.176 85.3708 188.707 86.4374 188.28 87.3761C186.061 91.8988 183.971 96.3361 182.008 100.688C180.045 105.04 177.741 109.776 175.096 114.896C174.584 115.92 173.987 117.157 173.304 118.608C172.707 119.973 172.024 121.339 171.256 122.704C170.488 123.984 169.635 125.179 168.696 126.288C167.843 127.397 166.904 128.208 165.88 128.72C165.027 129.232 164.173 129.445 163.32 129.36C162.637 129.531 161.869 129.317 161.016 128.72C159.992 128.208 159.011 127.397 158.072 126.288C157.219 125.179 156.408 123.984 155.64 122.704C154.872 121.339 154.147 119.973 153.464 118.608C152.867 117.157 152.312 115.92 151.8 114.896C150.776 112.933 149.795 111.099 148.856 109.392C148.003 107.685 147.064 105.851 146.04 103.888C145.101 101.84 144.035 99.5361 142.84 96.9761C141.645 94.3308 140.237 91.1308 138.616 87.3761C138.189 86.3521 137.72 85.2854 137.208 84.1761C136.696 83.0668 136.227 81.8721 135.8 80.5921C135.459 79.3121 135.203 78.0321 135.032 76.7521C134.947 75.3868 135.032 74.0215 135.288 72.6561C135.544 71.3761 136.184 70.3521 137.208 69.5841C138.232 68.8161 139.384 68.3041 140.664 68.0481C141.944 67.7921 143.224 67.8348 144.504 68.1761C145.784 68.4321 146.808 68.9868 147.576 69.8401C148.344 70.6081 149.069 71.6321 149.752 72.9121C150.435 74.1921 151.075 75.5575 151.672 77.0081C152.355 78.3734 152.952 79.7814 153.464 81.2321C154.061 82.5974 154.616 83.7921 155.128 84.8161C156.323 87.2908 157.645 89.9788 159.096 92.8801C160.632 95.7814 161.997 98.4694 163.192 100.944C164.045 98.9814 164.813 97.3601 165.496 96.0801C166.179 94.7148 166.819 93.3921 167.416 92.1121C168.099 90.8321 168.781 89.4241 169.464 87.8881C170.232 86.3521 171.171 84.3894 172.28 82.0001C173.304 79.7814 174.328 77.6054 175.352 75.4721C176.461 73.3388 177.784 71.4615 179.32 69.8401C180.088 68.9868 181.069 68.4321 182.264 68.1761C183.459 67.8348 184.696 67.7921 185.976 68.0481C187.256 68.3041 188.408 68.8588 189.432 69.7121C190.541 70.4801 191.352 71.5468 191.864 72.9121ZM235.262 111.44C236.286 111.184 237.31 111.013 238.334 110.928C239.443 110.843 240.424 110.971 241.278 111.312C242.216 111.653 242.984 112.251 243.582 113.104C244.179 113.872 244.478 114.981 244.478 116.432C244.478 117.456 244.222 118.437 243.71 119.376C243.198 120.315 242.558 121.168 241.79 121.936C241.022 122.704 240.168 123.387 239.23 123.984C238.291 124.496 237.395 124.923 236.542 125.264C234.067 126.373 231.209 127.227 227.966 127.824C224.809 128.421 221.523 128.635 218.11 128.464C213.502 128.293 209.065 127.397 204.798 125.776C200.617 124.069 197.331 121.296 194.942 117.456C192.723 113.701 191.401 109.52 190.974 104.912C190.547 100.304 190.761 95.9521 191.614 91.8561C192.553 86.9068 194.131 82.8961 196.35 79.8241C198.654 76.6668 201.385 74.1495 204.542 72.2721C208.382 70.0535 212.691 68.9015 217.47 68.8161C222.249 68.7308 226.814 69.6695 231.166 71.6321C234.067 72.9121 236.67 74.6615 238.974 76.8801C241.278 79.0134 243.027 81.6161 244.222 84.6881C244.563 85.4561 244.819 86.3948 244.99 87.5041C245.246 88.6134 245.416 89.8081 245.502 91.0881C245.587 92.2828 245.587 93.4774 245.502 94.6721C245.416 95.8668 245.203 96.9334 244.862 97.8721C244.35 99.4081 243.71 100.603 242.942 101.456C242.174 102.309 241.192 102.949 239.998 103.376C238.803 103.803 237.352 104.101 235.646 104.272C234.025 104.357 232.062 104.443 229.758 104.528C227.71 104.613 225.79 104.656 223.998 104.656C222.206 104.656 220.371 104.656 218.494 104.656C216.617 104.571 214.654 104.528 212.606 104.528C210.643 104.443 208.425 104.357 205.95 104.272C205.694 105.979 205.907 107.472 206.59 108.752C207.358 109.947 208.382 110.971 209.662 111.824C210.942 112.592 212.393 113.189 214.014 113.616C215.635 114.043 217.214 114.299 218.75 114.384C221.651 114.555 224.425 114.341 227.07 113.744C229.715 113.061 232.446 112.293 235.262 111.44ZM229.758 86.6081C228.137 84.7308 226.43 83.3654 224.638 82.5121C223.273 81.9148 221.822 81.6588 220.286 81.7441C218.835 81.7441 217.427 81.9574 216.062 82.3841C213.587 82.9814 211.497 84.2614 209.79 86.2241C209.619 86.3948 209.321 86.8214 208.894 87.5041C208.467 88.1014 208.041 88.7414 207.614 89.4241C207.273 90.1068 207.017 90.7468 206.846 91.3441C206.675 91.9414 206.761 92.2401 207.102 92.2401H232.19C232.105 91.0454 231.891 90.0641 231.55 89.2961C231.209 88.4428 230.611 87.5468 229.758 86.6081ZM278.761 106.448C277.139 105.424 275.305 104.613 273.257 104.016C271.294 103.419 269.246 102.864 267.113 102.352C265.065 101.84 263.059 101.285 261.097 100.688C259.134 100.005 257.342 99.0668 255.721 97.8721C252.222 95.2268 250.174 91.9841 249.577 88.1441C249.065 84.2188 249.918 80.2934 252.137 76.3681C253.331 74.3201 254.91 72.6561 256.873 71.3761C258.835 70.0108 260.969 68.9868 263.273 68.3041C265.662 67.5361 268.094 67.1095 270.569 67.0241C273.043 66.9388 275.39 67.0668 277.609 67.4081C279.059 67.6641 280.595 68.0481 282.217 68.5601C283.838 68.9868 285.331 69.5841 286.697 70.3521C288.147 71.1201 289.427 72.1015 290.537 73.2961C291.731 74.4055 292.585 75.8135 293.097 77.5201C293.438 78.6294 293.481 79.6961 293.225 80.7201C293.054 81.7441 292.627 82.5974 291.945 83.2801C291.347 83.9628 290.537 84.4748 289.513 84.8161C288.574 85.1574 287.55 85.2428 286.441 85.0721C285.161 84.8161 283.966 84.4321 282.857 83.9201C281.747 83.4081 280.638 82.8534 279.529 82.2561C278.419 81.6588 277.267 81.1468 276.073 80.7201C274.963 80.2934 273.769 80.0801 272.489 80.0801C270.526 79.9948 268.905 80.3361 267.625 81.1041C266.345 81.8721 265.449 82.8108 264.937 83.9201C264.51 85.0294 264.553 86.2241 265.065 87.5041C265.662 88.7841 266.857 89.8934 268.649 90.8321C270.27 91.6854 272.062 92.3681 274.025 92.8801C275.987 93.3921 277.907 93.9041 279.785 94.4161C281.747 94.9281 283.625 95.5254 285.417 96.2081C287.294 96.8908 288.958 97.8294 290.409 99.0241C293.225 101.328 294.931 104.016 295.529 107.088C296.211 110.16 296.041 113.189 295.017 116.176C293.993 119.163 292.201 121.808 289.641 124.112C287.166 126.416 284.222 127.952 280.809 128.72C278.334 129.232 275.646 129.488 272.745 129.488C269.929 129.488 267.113 129.189 264.297 128.592C261.566 127.995 258.921 127.056 256.361 125.776C253.886 124.496 251.795 122.875 250.089 120.912C248.894 119.547 248.254 118.011 248.169 116.304C248.169 114.512 248.51 112.976 249.193 111.696C249.961 110.331 251.027 109.392 252.393 108.88C253.758 108.368 255.294 108.667 257.001 109.776C258.366 110.715 259.987 111.653 261.865 112.592C263.742 113.445 265.619 114.128 267.497 114.64C269.374 115.152 271.166 115.408 272.873 115.408C274.665 115.408 276.201 115.024 277.481 114.256C279.358 113.061 280.339 111.696 280.425 110.16C280.51 108.539 279.955 107.301 278.761 106.448ZM329.206 106.448C327.584 105.424 325.75 104.613 323.702 104.016C321.739 103.419 319.691 102.864 317.558 102.352C315.51 101.84 313.504 101.285 311.542 100.688C309.579 100.005 307.787 99.0668 306.166 97.8721C302.667 95.2268 300.619 91.9841 300.022 88.1441C299.51 84.2188 300.363 80.2934 302.582 76.3681C303.776 74.3201 305.355 72.6561 307.318 71.3761C309.28 70.0108 311.414 68.9868 313.718 68.3041C316.107 67.5361 318.539 67.1095 321.014 67.0241C323.488 66.9388 325.835 67.0668 328.054 67.4081C329.504 67.6641 331.04 68.0481 332.662 68.5601C334.283 68.9868 335.776 69.5841 337.142 70.3521C338.592 71.1201 339.872 72.1015 340.982 73.2961C342.176 74.4055 343.03 75.8135 343.542 77.5201C343.883 78.6294 343.926 79.6961 343.67 80.7201C343.499 81.7441 343.072 82.5974 342.39 83.2801C341.792 83.9628 340.982 84.4748 339.958 84.8161C339.019 85.1574 337.995 85.2428 336.886 85.0721C335.606 84.8161 334.411 84.4321 333.302 83.9201C332.192 83.4081 331.083 82.8534 329.974 82.2561C328.864 81.6588 327.712 81.1468 326.518 80.7201C325.408 80.2934 324.214 80.0801 322.934 80.0801C320.971 79.9948 319.35 80.3361 318.07 81.1041C316.79 81.8721 315.894 82.8108 315.382 83.9201C314.955 85.0294 314.998 86.2241 315.51 87.5041C316.107 88.7841 317.302 89.8934 319.094 90.8321C320.715 91.6854 322.507 92.3681 324.47 92.8801C326.432 93.3921 328.352 93.9041 330.23 94.4161C332.192 94.9281 334.07 95.5254 335.862 96.2081C337.739 96.8908 339.403 97.8294 340.854 99.0241C343.67 101.328 345.376 104.016 345.974 107.088C346.656 110.16 346.486 113.189 345.462 116.176C344.438 119.163 342.646 121.808 340.086 124.112C337.611 126.416 334.667 127.952 331.254 128.72C328.779 129.232 326.091 129.488 323.19 129.488C320.374 129.488 317.558 129.189 314.742 128.592C312.011 127.995 309.366 127.056 306.806 125.776C304.331 124.496 302.24 122.875 300.534 120.912C299.339 119.547 298.699 118.011 298.614 116.304C298.614 114.512 298.955 112.976 299.638 111.696C300.406 110.331 301.472 109.392 302.838 108.88C304.203 108.368 305.739 108.667 307.446 109.776C308.811 110.715 310.432 111.653 312.31 112.592C314.187 113.445 316.064 114.128 317.942 114.64C319.819 115.152 321.611 115.408 323.318 115.408C325.11 115.408 326.646 115.024 327.926 114.256C329.803 113.061 330.784 111.696 330.87 110.16C330.955 108.539 330.4 107.301 329.206 106.448ZM365.571 71.1201C368.387 69.7548 371.331 68.7735 374.403 68.1761C377.475 67.5788 380.504 67.4508 383.491 67.7921C386.563 68.1335 389.507 68.9441 392.323 70.2241C395.224 71.5041 397.869 73.2961 400.259 75.6001C402.221 77.5628 403.928 79.9521 405.379 82.7681C406.829 85.4988 407.896 88.1868 408.579 90.8321C410.029 95.5254 410.243 100.261 409.219 105.04C408.195 109.819 406.445 114.256 403.971 118.352C402.776 120.229 401.283 121.936 399.491 123.472C397.784 124.923 395.949 126.117 393.987 127.056C391.427 128.251 388.653 129.061 385.667 129.488C382.68 130 379.779 130.128 376.963 129.872C371.843 129.616 367.32 128.336 363.395 126.032C359.555 123.728 356.44 120.784 354.051 117.2C351.747 113.616 350.211 109.563 349.443 105.04C348.76 100.432 349.059 95.7388 350.339 90.9601C351.704 85.8401 353.667 81.7014 356.227 78.5441C358.872 75.3015 361.987 72.8268 365.571 71.1201ZM369.411 88.2721C368.131 89.4668 367.149 90.9601 366.467 92.7521C365.784 94.5441 365.357 96.4214 365.187 98.3841C365.016 100.261 365.144 102.181 365.571 104.144C366.083 106.021 366.851 107.728 367.875 109.264C368.728 110.544 370.264 111.611 372.483 112.464C374.701 113.317 377.005 113.829 379.395 114C382.125 114.171 384.515 113.445 386.563 111.824C388.611 110.117 390.147 108.027 391.171 105.552C392.28 103.077 392.792 100.389 392.707 97.4881C392.621 94.5868 391.853 91.9414 390.403 89.5521C389.379 87.8454 387.928 86.6081 386.051 85.8401C384.259 84.9868 382.339 84.5601 380.291 84.5601C378.328 84.4748 376.365 84.7734 374.403 85.4561C372.44 86.0534 370.776 86.9921 369.411 88.2721Z" fill="#F82167"/>
</g>
<defs>
<clipPath id="clip0_1095_1394">
<rect width="409.855" height="130" fill="white"/>
</clipPath>
</defs>
</svg>
